<svg width="66" height="65" viewBox="0 0 66 65" fill="none" xmlns="http://www.w3.org/2000/svg">
<g clip-path="url(#clip0_49_432)">
<path d="M14.1542 62.9955L12.2429 60.3034C11.8372 59.7316 11.0446 59.5971 10.4728 60.003C9.90118 60.4089 9.76661 61.2013 10.1726 61.7731L12.0839 64.4654C12.3314 64.8141 12.7227 65.0001 13.1202 65.0001C13.3743 65.0001 13.6309 64.9239 13.854 64.7656C14.4256 64.3597 14.5602 63.5673 14.1542 62.9955Z" fill="#937DC2"/>
<path d="M28.8011 63.4694L26.7211 53.5559C25.7096 48.7353 22.9014 44.5669 18.8141 41.8185L14.3731 38.8323C12.5924 37.6352 10.1988 37.8926 8.71043 39.4104V24.1131C8.71043 22.1052 7.3415 20.3992 5.38135 19.9641C4.11626 19.6831 2.81144 19.9875 1.80077 20.7983C0.790232 21.6092 0.210693 22.8174 0.210693 24.1131V43.7973C0.210693 46.3761 0.999831 48.8508 2.49267 50.9538L4.75661 54.143C5.00417 54.4917 5.39544 54.6777 5.79293 54.6777C6.04709 54.6777 6.30366 54.6015 6.52671 54.4432C7.09838 54.0373 7.23295 53.2449 6.82696 52.6731L4.56301 49.4839C3.37676 47.8128 2.74975 45.8465 2.74975 43.7972V24.1131C2.74975 23.5916 2.98308 23.1052 3.38984 22.7787C3.79647 22.4523 4.32167 22.3298 4.83126 22.4429C5.62027 22.618 6.17137 23.3048 6.17137 24.1131V39.7303C6.17137 41.941 6.98362 44.0473 8.45919 45.686C8.52241 45.7618 8.58741 45.8368 8.65609 45.9096C9.49918 46.8029 10.4904 47.8556 11.424 48.8479L12.731 50.2389C12.7352 50.2434 12.7398 50.2472 12.7441 50.2515C13.8622 51.4406 14.6867 52.3188 14.704 52.3371C15.1837 52.848 15.9873 52.8734 16.4985 52.3934C17.0096 51.9134 17.0348 51.1101 16.5547 50.5989C16.5316 50.5743 15.0455 48.9919 13.3484 47.188L10.4375 44.09C10.4301 44.0821 10.4234 44.0738 10.416 44.066C9.73354 43.2497 9.74204 42.0661 10.4574 41.2584C11.0903 40.5442 12.1648 40.4071 12.9566 40.9394L17.3973 43.9256C20.9327 46.3027 23.3614 49.9079 24.2361 54.0773L26.3162 63.9909C26.4418 64.5893 26.9695 64.9999 27.5574 64.9999C27.6438 64.9999 27.7315 64.9911 27.8193 64.9726C28.5055 64.8287 28.945 64.1556 28.8011 63.4694Z" fill="#937DC2"/>
<path d="M9.61658 56.6028L9.60846 56.5913C9.20094 56.0206 8.40825 55.888 7.8376 56.2953C7.26695 56.7026 7.13441 57.4954 7.54154 58.066L7.54967 58.0774C7.79748 58.4246 8.18786 58.6097 8.58421 58.6097C8.83938 58.6097 9.09697 58.5331 9.32053 58.3735C9.89106 57.9662 10.0237 57.1734 9.61658 56.6028Z" fill="#937DC2"/>
<path d="M63.6201 20.7981C62.6095 19.9873 61.3041 19.6834 60.0396 19.9639C58.0795 20.3989 56.7104 22.105 56.7104 24.1129V39.4102C55.2221 37.8924 52.8283 37.635 51.0477 38.8321L46.6068 41.8182C42.5193 44.5665 39.7112 48.735 38.6998 53.5556L36.6198 63.4692C36.4758 64.1554 36.9153 64.8284 37.6015 64.9723C37.6894 64.9907 37.7772 64.9996 37.8634 64.9996C38.4514 64.9996 38.9791 64.5888 39.1046 63.9905L41.1846 54.0769C42.0594 49.9076 44.488 46.3023 48.0234 43.9252L52.4644 40.9392C53.2559 40.4067 54.3304 40.5438 54.9635 41.2581C55.678 42.0647 55.6876 43.2464 55.0076 44.0627C54.9995 44.0716 54.9917 44.0807 54.9836 44.0896C54.9836 44.0896 48.8892 50.5743 48.8663 50.5986C48.3863 51.1097 48.4115 51.9131 48.9225 52.3931C49.4336 52.8731 50.237 52.8478 50.717 52.3367C50.7342 52.3185 55.9218 46.8027 56.7649 45.9094C56.8336 45.8366 56.8986 45.7616 56.9618 45.6858C58.4372 44.0471 59.2496 41.9408 59.2496 39.7301V24.1127C59.2496 23.3044 59.8007 22.6176 60.5898 22.4425C61.0993 22.3296 61.6244 22.4521 62.0312 22.7783C62.438 23.1047 62.6713 23.5911 62.6713 24.1127V43.797C62.6713 45.8463 62.0443 47.8126 60.8581 49.4837L51.2667 62.9949C50.8608 63.5666 50.9953 64.3592 51.5669 64.765C51.7901 64.9233 52.0466 64.9995 52.3007 64.9995C52.6981 64.9995 53.0895 64.8134 53.337 64.4648L62.9284 50.9536C64.4213 48.8506 65.2104 46.3759 65.2104 43.7971V24.1127C65.21 22.8171 64.6306 21.609 63.6201 20.7981Z" fill="#937DC2"/>
<path d="M48.7903 24.3318L46.5317 23.7922V23.3872C47.9996 22.3589 48.9622 20.6561 48.9622 18.7318V15.7955C48.9622 12.6624 46.4134 10.1136 43.2803 10.1136C41.8743 10.1136 40.587 10.628 39.5938 11.4771C38.4881 8.76915 35.8274 6.85547 32.7267 6.85547C29.6222 6.85547 26.9588 8.7741 25.8555 11.4872C24.8609 10.6321 23.5689 10.1133 22.1571 10.1133C19.0241 10.1133 16.4753 12.6622 16.4753 15.7952V15.9903V18.7315C16.4753 20.6559 17.4378 22.3587 18.9058 23.387V23.792L16.6472 24.3315C13.9504 24.9758 12.067 27.3621 12.067 30.1348V32.5057C12.067 33.2069 12.6354 33.7753 13.3365 33.7753H19.1702C19.1612 33.9293 19.155 34.084 19.155 34.24V38.805C19.155 39.5062 19.7235 40.0745 20.4245 40.0745H28.0556C28.7567 40.0745 29.3251 39.5062 29.3251 38.805C29.3251 38.1038 28.7567 37.5355 28.0556 37.5355H26.7439V34.912C26.7439 34.2108 26.1755 33.6425 25.4744 33.6425C24.7734 33.6425 24.2049 34.2108 24.2049 34.912V37.5357H21.6942V34.2403C21.6942 31.7918 23.3572 29.6832 25.7381 29.1127L29.2219 28.2778L31.5534 33.5822C31.756 34.0431 32.212 34.3408 32.7154 34.3408H32.7155C33.219 34.3408 33.6751 34.0433 33.8777 33.5823L36.2067 28.2858L39.6795 29.1155C42.0627 29.6849 43.7272 31.7937 43.7272 34.244V37.5357H41.2164V34.912C41.2164 34.2108 40.6479 33.6425 39.9469 33.6425C39.2459 33.6425 38.6774 34.2108 38.6774 34.912V37.5357H37.2386C36.5376 37.5357 35.9691 38.1041 35.9691 38.8053C35.9691 39.5064 36.5376 40.0748 37.2386 40.0748H44.9968C45.6978 40.0748 46.2663 39.5064 46.2663 38.8053V34.244C46.2663 34.0867 46.26 33.9308 46.2509 33.7755H52.1011C52.8021 33.7755 53.3706 33.2072 53.3706 32.506V30.135C53.3706 27.3624 51.4871 24.9759 48.7903 24.3318ZM43.2803 12.6524C44.9436 12.6524 46.3091 13.9512 46.4163 15.5879H44.6512C43.1674 15.5879 41.7072 15.2307 40.3947 14.5504C40.8775 13.4348 41.9893 12.6524 43.2803 12.6524ZM40.1374 18.5462C40.139 18.4843 40.1421 18.4228 40.1421 18.3605V17.2299C41.5667 17.8195 43.0986 18.127 44.6512 18.127H46.4231V18.7316C46.4231 20.4645 45.0133 21.8745 43.2803 21.8745C41.5473 21.8745 40.1374 20.4645 40.1374 18.7315V18.5462ZM27.8505 14.2708C27.8505 11.582 30.0379 9.39452 32.7267 9.39452C35.1519 9.39452 37.169 11.1741 37.5415 13.4959L35.4043 12.2402C34.8697 11.9261 34.1864 12.044 33.7882 12.5195C32.7437 13.7659 31.212 14.4808 29.5858 14.4808H27.8505V14.2708ZM22.1573 12.6524C23.4483 12.6524 24.56 13.4349 25.0429 14.5503C23.7302 15.2305 22.2701 15.5878 20.7863 15.5878H19.0213C19.1284 13.9512 20.4941 12.6524 22.1573 12.6524ZM19.0144 18.1268H20.7863C22.3406 18.1268 23.8742 17.8187 25.3001 17.2279V18.7314C25.3001 20.4643 23.8903 21.8742 22.1573 21.8742C20.4242 21.8742 19.0144 20.4645 19.0144 18.7315V18.1268ZM25.1465 26.6434C22.6488 27.2419 20.6859 28.9833 19.7517 31.2363H14.606V30.1349C14.606 28.5422 15.6879 27.1712 17.2371 26.8011L20.4703 26.0287C21.0417 25.8923 21.4449 25.3815 21.4449 24.794V24.3672C21.6785 24.3965 21.9159 24.4134 22.1573 24.4134C22.3968 24.4134 22.6326 24.3968 22.8644 24.3678V24.73C22.8635 24.7489 22.8631 24.7678 22.863 24.7868C22.8628 25.2033 23.0675 25.6113 23.4436 25.8546C23.5852 25.9464 23.7383 26.006 23.8946 26.0359L25.7884 26.4896L25.1465 26.6434ZM28.6877 24.6726C28.3616 24.5288 28.0216 24.4138 27.6712 24.3299L25.4033 23.7864V23.3908C25.8126 23.1048 26.1827 22.7667 26.5036 22.3856C27.0706 23.259 27.8156 24.0059 28.6877 24.5748V24.6726ZM34.2015 26.5379L32.7159 29.9168L31.2269 26.5293V25.6234C31.7115 25.7233 32.2131 25.776 32.7267 25.776C33.2316 25.776 33.7247 25.7248 34.2015 25.6282V26.5379ZM32.7267 23.2368C30.0379 23.2369 27.8505 21.0494 27.8505 18.3605V17.0197H29.5858C31.599 17.0197 33.5132 16.271 34.9803 14.9357L37.5983 16.4739V18.5463C37.5003 21.1492 35.3534 23.2368 32.7267 23.2368ZM36.7406 24.6767V24.5907C37.6199 24.0223 38.3714 23.2735 38.9428 22.3962C39.2616 22.773 39.6285 23.1074 40.0339 23.3908V23.7864L37.7658 24.3299C37.4124 24.4147 37.0695 24.5311 36.7406 24.6767ZM50.8314 31.2363H45.6683C44.7331 28.9833 42.7688 27.2429 40.2696 26.6459L39.6322 26.4936L41.5361 26.0374C41.6945 26.0079 41.8502 25.9475 41.9938 25.8546C42.3692 25.6117 42.5733 25.2037 42.5733 24.7871C42.5733 24.7772 42.5732 24.7672 42.5729 24.7573V24.3678C42.8048 24.3968 43.0405 24.4134 43.28 24.4134C43.5214 24.4134 43.7588 24.3965 43.9924 24.3672V24.794C43.9924 25.3815 44.3956 25.8923 44.967 26.0287L48.2002 26.8011C49.7494 27.1713 50.8314 28.5422 50.8314 30.1349V31.2363Z" fill="#937DC2"/>
<path d="M33.6079 37.9068C33.3706 37.6707 33.0443 37.5361 32.7104 37.5361C32.3752 37.5361 32.049 37.6707 31.8129 37.9068C31.5755 38.1442 31.4409 38.4705 31.4409 38.8057C31.4409 39.1395 31.5755 39.4658 31.8129 39.7032C32.049 39.9393 32.3753 40.0752 32.7104 40.0752C33.0443 40.0752 33.3706 39.9393 33.6079 39.7032C33.844 39.4658 33.98 39.1395 33.98 38.8057C33.98 38.4705 33.8441 38.1442 33.6079 37.9068Z" fill="#937DC2"/>
<path d="M32.7094 0C32.0084 0 31.4399 0.568367 31.4399 1.26953V3.16912C31.4399 3.87028 32.0084 4.43864 32.7094 4.43864C33.4104 4.43864 33.9789 3.87028 33.9789 3.16912V1.26953C33.9789 0.568367 33.4106 0 32.7094 0Z" fill="#937DC2"/>
<path d="M28.0329 4.14091L26.7012 2.81044C26.2052 2.31482 25.4015 2.3152 24.9058 2.81121C24.4102 3.30721 24.4107 4.11107 24.9067 4.60657L26.2386 5.93704C26.4864 6.18472 26.8111 6.3085 27.1358 6.3085C27.4609 6.3085 27.7859 6.18434 28.0338 5.93627C28.5292 5.44027 28.5289 4.6364 28.0329 4.14091Z" fill="#937DC2"/>
<path d="M40.4825 2.84261C39.9865 2.34711 39.1825 2.34737 38.6871 2.8435L37.3656 4.16622C36.8701 4.66222 36.8705 5.46609 37.3665 5.96158C37.6145 6.20927 37.9391 6.33304 38.2638 6.33304C38.589 6.33304 38.9141 6.20889 39.1619 5.96069L40.4833 4.63797C40.9788 4.14197 40.9785 3.3381 40.4825 2.84261Z" fill="#937DC2"/>
</g>
<defs>
<clipPath id="clip0_49_432">
<rect width="65" height="65" fill="white" transform="translate(0.210571)"/>
</clipPath>
</defs>
</svg>
