<svg width="66" height="65" viewBox="0 0 66 65" fill="none" xmlns="http://www.w3.org/2000/svg">
<g clip-path="url(#clip0_49_465)">
<path d="M32.7104 51.2256C34.4633 51.2256 35.8843 49.8046 35.8843 48.0518C35.8843 46.2989 34.4633 44.8779 32.7104 44.8779C30.9576 44.8779 29.5366 46.2989 29.5366 48.0518C29.5366 49.8046 30.9576 51.2256 32.7104 51.2256Z" fill="#937DC2"/>
<path d="M32.7104 0C14.7486 0 0.210449 14.5358 0.210449 32.5C0.210449 50.4618 14.7462 65 32.7104 65C50.6723 65 65.2104 50.4642 65.2104 32.5C65.2104 14.5382 50.6747 0 32.7104 0ZM32.7104 59.9219C17.5552 59.9219 5.28857 47.6573 5.28857 32.5C5.28857 17.3447 17.5531 5.07812 32.7104 5.07812C47.8657 5.07812 60.1323 17.3427 60.1323 32.5C60.1323 47.6553 47.8678 59.9219 32.7104 59.9219Z" fill="#937DC2"/>
<path d="M32.7104 16.3135C27.1103 16.3135 22.5542 20.8696 22.5542 26.4697C22.5542 27.8721 23.6909 29.0088 25.0933 29.0088C26.4956 29.0088 27.6323 27.8721 27.6323 26.4697C27.6323 23.6696 29.9104 21.3916 32.7104 21.3916C35.5105 21.3916 37.7886 23.6696 37.7886 26.4697C37.7886 29.2698 35.5105 31.5479 32.7104 31.5479C31.3081 31.5479 30.1714 32.6846 30.1714 34.0869V40.4346C30.1714 41.8369 31.3081 42.9736 32.7104 42.9736C34.1128 42.9736 35.2495 41.8369 35.2495 40.4346V36.3047C39.6251 35.1744 42.8667 31.1935 42.8667 26.4697C42.8667 20.8696 38.3106 16.3135 32.7104 16.3135Z" fill="#937DC2"/>
</g>
<defs>
<clipPath id="clip0_49_465">
<rect width="65" height="65" fill="white" transform="translate(0.210449)"/>
</clipPath>
</defs>
</svg>
