<svg width="90" height="62" viewBox="0 0 90 62" fill="none" xmlns="http://www.w3.org/2000/svg">
<g filter="url(#filter0_d_49_921)">
<path d="M49.5 0C41.937 0 35.4852 4.68202 32.8242 11.291C30.4572 9.86902 27.717 9 24.75 9C16.053 9 9 16.05 9 24.75C9 25.59 9.12009 26.3981 9.24609 27.2051C4.00509 28.1561 0 32.745 0 38.25C0 44.436 5.064 49.5 11.25 49.5H17.877C16.992 47.424 16.5 45.144 16.5 42.75C16.5 34.407 22.4558 27.4268 30.3398 25.8398C33.7478 17.6018 41.8309 12 51.0469 12C56.2669 12 61.2397 13.8242 65.2207 17.1152C65.9257 16.9202 66.6422 16.7808 67.3652 16.6758C66.6752 7.36378 58.986 0 49.5 0ZM51.0469 18C42.9739 18 36.2876 23.829 34.8926 31.5H33.75C27.564 31.5 22.5 36.564 22.5 42.75C22.5 48.936 27.564 54 33.75 54H81C85.95 54 90 49.95 90 45C90 40.05 85.95 36 81 36H80.7773C80.9273 35.271 81 34.518 81 33.75C81 27.534 75.966 22.5 69.75 22.5C67.572 22.5 65.5569 23.1458 63.8379 24.2168C60.8199 20.4548 56.2399 18 51.0469 18Z" fill="url(#paint0_linear_49_921)"/>
<path d="M32.5667 11.7196L33.0691 12.0214L33.288 11.4778C35.876 5.05021 42.1493 0.5 49.5 0.5C58.5621 0.5 65.9415 7.41539 66.8266 16.2538C66.3289 16.3371 65.8323 16.4389 65.3389 16.5661C61.3036 13.3053 56.2976 11.5 51.0469 11.5C41.7163 11.5 33.5223 17.1166 29.9806 25.4042C21.9979 27.137 16 34.256 16 42.75C16 44.9484 16.4033 47.0539 17.1375 49H11.25C5.34014 49 0.5 44.1599 0.5 38.25C0.5 32.9931 4.3258 28.6061 9.33536 27.697L9.81537 27.6099L9.74011 27.1279C9.61377 26.3188 9.5 25.5463 9.5 24.75C9.5 16.3262 16.3291 9.5 24.75 9.5C27.617 9.5 30.2691 10.3393 32.5667 11.7196ZM34.8926 32H35.3099L35.3845 31.5895C36.7373 24.1503 43.2214 18.5 51.0469 18.5C56.0768 18.5 60.5174 20.8768 63.4479 24.5297L63.7256 24.8759L64.1023 24.6412C65.7486 23.6155 67.673 23 69.75 23C75.6899 23 80.5 27.8101 80.5 33.75C80.5 34.4865 80.4303 35.2056 80.2876 35.8992L80.164 36.5H80.7773H81C85.6739 36.5 89.5 40.3261 89.5 45C89.5 49.6739 85.6739 53.5 81 53.5H33.75C27.8401 53.5 23 48.6599 23 42.75C23 36.8401 27.8401 32 33.75 32H34.8926Z" stroke="black" stroke-opacity="0.1"/>
</g>
<defs>
<filter id="filter0_d_49_921" x="-4" y="0" width="98" height="62" filterUnits="userSpaceOnUse" color-interpolation-filters="sRGB">
<feFlood flood-opacity="0" result="BackgroundImageFix"/>
<feColorMatrix in="SourceAlpha" type="matrix" values="0 0 0 0 0 0 0 0 0 0 0 0 0 0 0 0 0 0 127 0" result="hardAlpha"/>
<feOffset dy="4"/>
<feGaussianBlur stdDeviation="2"/>
<feComposite in2="hardAlpha" operator="out"/>
<feColorMatrix type="matrix" values="0 0 0 0 0 0 0 0 0 0 0 0 0 0 0 0 0 0 0.25 0"/>
<feBlend mode="normal" in2="BackgroundImageFix" result="effect1_dropShadow_49_921"/>
<feBlend mode="normal" in="SourceGraphic" in2="effect1_dropShadow_49_921" result="shape"/>
</filter>
<linearGradient id="paint0_linear_49_921" x1="26.5" y1="27" x2="60.5" y2="54" gradientUnits="userSpaceOnUse">
<stop stop-color="#937DC2"/>
<stop offset="1" stop-color="#FFABE1"/>
</linearGradient>
</defs>
</svg>
