<svg width="124" height="124" viewBox="0 0 124 124" fill="none" xmlns="http://www.w3.org/2000/svg">
<g filter="url(#filter0_d_49_179)">
<rect x="12" y="8" width="100" height="100" rx="24" fill="#C689C6"/>
</g>
<path d="M52 56.5C56.6944 56.5 60.5 52.6944 60.5 48C60.5 43.3056 56.6944 39.5 52 39.5C47.3056 39.5 43.5 43.3056 43.5 48C43.5 52.6944 47.3056 56.5 52 56.5Z" stroke="white" stroke-width="3" stroke-linecap="round" stroke-linejoin="round"/>
<path d="M72 76.5C76.6944 76.5 80.5 72.6944 80.5 68C80.5 63.3056 76.6944 59.5 72 59.5C67.3056 59.5 63.5 63.3056 63.5 68C63.5 72.6944 67.3056 76.5 72 76.5Z" stroke="white" stroke-width="3" stroke-linecap="round" stroke-linejoin="round"/>
<path d="M57.5 59.5H46.5C44.8431 59.5 43.5 60.8431 43.5 62.5V73.5C43.5 75.1569 44.8431 76.5 46.5 76.5H57.5C59.1569 76.5 60.5 75.1569 60.5 73.5V62.5C60.5 60.8431 59.1569 59.5 57.5 59.5Z" stroke="white" stroke-width="3" stroke-linecap="round" stroke-linejoin="round"/>
<path d="M70.309 40.5L63.853 51.682C63.6774 51.986 63.585 52.3309 63.585 52.682C63.585 53.033 63.6774 53.3779 63.853 53.682C64.0285 53.986 64.281 54.2385 64.585 54.414C64.889 54.5895 65.2339 54.682 65.585 54.682H78.497C78.848 54.682 79.1929 54.5895 79.497 54.414C79.801 54.2385 80.0535 53.986 80.229 53.682C80.4045 53.3779 80.4969 53.033 80.4969 52.682C80.4969 52.3309 80.4045 51.986 80.229 51.682L73.773 40.5C73.5974 40.196 73.345 39.9435 73.0409 39.768C72.7369 39.5925 72.392 39.5001 72.041 39.5001C71.6899 39.5001 71.345 39.5925 71.041 39.768C70.737 39.9435 70.4845 40.196 70.309 40.5V40.5Z" stroke="white" stroke-width="3" stroke-linecap="round" stroke-linejoin="round"/>
<defs>
<filter id="filter0_d_49_179" x="0" y="0" width="124" height="124" filterUnits="userSpaceOnUse" color-interpolation-filters="sRGB">
<feFlood flood-opacity="0" result="BackgroundImageFix"/>
<feColorMatrix in="SourceAlpha" type="matrix" values="0 0 0 0 0 0 0 0 0 0 0 0 0 0 0 0 0 0 127 0" result="hardAlpha"/>
<feOffset dy="4"/>
<feGaussianBlur stdDeviation="6"/>
<feComposite in2="hardAlpha" operator="out"/>
<feColorMatrix type="matrix" values="0 0 0 0 0 0 0 0 0 0 0 0 0 0 0 0 0 0 0.25 0"/>
<feBlend mode="normal" in2="BackgroundImageFix" result="effect1_dropShadow_49_179"/>
<feBlend mode="normal" in="SourceGraphic" in2="effect1_dropShadow_49_179" result="shape"/>
</filter>
</defs>
</svg>
