<svg width="59" height="65" viewBox="0 0 59 65" fill="none" xmlns="http://www.w3.org/2000/svg">
<path d="M46.8011 46.1682L40.7671 44.1572L38.6008 39.8247C40.5524 37.8384 41.9073 35.2102 42.3643 32.4689L42.6344 30.8496H44.9448C47.0449 30.8496 48.7534 29.1411 48.7534 27.041V19.043C48.7534 8.54268 40.2107 0 29.7104 0C19.1832 0 10.6675 8.51817 10.6675 19.043V27.041C10.6675 28.696 11.7289 30.1072 13.2065 30.6313V32.1191C13.2065 34.2192 14.9151 35.9277 17.0151 35.9277H18.13C18.6804 37.1233 19.3927 38.2305 20.2596 39.2252C20.4393 39.4319 20.6268 39.6322 20.8189 39.8271L18.6538 44.1572L12.6196 46.1683C5.60357 48.5078 0.51123 55.8938 0.51123 63.7305C0.51123 64.4316 1.0796 65 1.78076 65H57.6401C58.3412 65 58.9097 64.4316 58.9097 63.7305C58.9097 55.8938 53.8175 48.5078 46.8011 46.1682ZM46.2144 27.041C46.2144 27.741 45.6448 28.3105 44.9448 28.3105H43.0073C43.33 25.8108 43.545 23.1508 43.6315 20.5309C43.634 20.457 43.6361 20.3851 43.6384 20.3125H46.2144V27.041ZM14.4761 28.3105C13.7761 28.3105 13.2065 27.741 13.2065 27.041V20.3125H15.7834C15.7876 20.4449 15.7921 20.578 15.797 20.7119C15.7971 20.7165 15.7974 20.7209 15.7975 20.7255C15.7975 20.7259 15.7975 20.7262 15.7975 20.7266C15.8864 23.2748 16.0987 25.8658 16.414 28.3104H14.4761V28.3105ZM17.0151 33.3887C16.3151 33.3887 15.7456 32.8192 15.7456 32.1191V30.8496H16.7864L17.0565 32.4694C17.1081 32.7773 17.1714 33.084 17.2447 33.3887H17.0151ZM15.7478 17.7734H13.2548C13.8978 9.26491 20.9985 2.53906 29.7104 2.53906C38.3836 2.53906 45.5156 9.26402 46.166 17.7734H43.6733C43.5819 10.7622 37.8724 5.07812 30.8468 5.07812H28.5743C21.5489 5.07812 15.839 10.7622 15.7478 17.7734ZM28.5742 7.61719H30.8467C36.5353 7.61719 41.1395 12.2701 41.1362 17.9524C41.1362 18.352 41.1331 18.6998 41.1263 19.0163C41.1263 19.0204 41.1262 19.0246 41.1262 19.0287L39.5383 18.8019C35.2244 18.1859 31.1512 16.1493 28.0691 13.0672C27.8309 12.8291 27.5081 12.6953 27.1714 12.6953C23.7619 12.6953 20.4982 14.2487 18.3408 16.8731C18.8725 11.7037 23.2426 7.61719 28.5742 7.61719ZM19.8767 33.3887C19.2411 31.2745 18.5139 25.0538 18.3532 21.0675L20.0619 18.7892C21.6312 16.6975 24.0726 15.3979 26.6697 15.2487C30.0869 18.5008 34.5076 20.6483 39.1792 21.3153L41.0483 21.5824C40.9233 24.2338 40.668 26.8945 40.3023 29.3415C40.3021 29.3423 40.302 29.3432 40.3019 29.3441C40.1856 30.1308 40.0939 30.6371 39.8598 32.0512C39.1875 36.0839 36.1785 39.7306 32.2062 40.7238C30.5714 41.1319 28.8492 41.1318 27.2153 40.7238C24.735 40.1037 22.4608 38.3876 20.9931 35.9277H23.5812C24.1052 37.4053 25.5163 38.4668 27.1714 38.4668H29.7104C31.8147 38.4668 33.519 36.7626 33.519 34.6582C33.519 32.5581 31.8105 30.8496 29.7104 30.8496H27.1714C25.4795 30.8496 24.0892 31.9424 23.579 33.3887H19.8767ZM27.0646 43.293C27.9354 43.4765 28.8232 43.5703 29.7104 43.5703C30.405 43.5703 31.0997 43.5122 31.7865 43.3994L29.5433 45.7718L27.0646 43.293ZM27.7979 47.6175L23.7712 51.8757C22.6626 49.7538 21.7101 47.5455 20.9288 45.2847L22.441 42.2604L27.7979 47.6175ZM36.7647 41.8303L38.4918 45.2846C37.7093 47.5492 36.7565 49.7583 35.6491 51.8776L31.3393 47.5678L36.7647 41.8303ZM25.9019 34.6582C25.9019 33.9573 26.4704 33.3887 27.1714 33.3887H29.7104C30.4105 33.3887 30.98 33.9582 30.98 34.6582C30.98 35.3592 30.4114 35.9277 29.7104 35.9277H27.1714C26.4714 35.9277 25.9019 35.3582 25.9019 34.6582ZM3.10107 62.4609C3.60419 56.1718 7.78971 50.4554 13.4226 48.577L18.7666 46.7961C19.7456 49.5033 20.9586 52.1347 22.38 54.6342C22.3825 54.6385 22.3847 54.6428 22.3872 54.647C22.3872 54.6471 22.3873 54.6471 22.3873 54.6472C23.4259 56.474 24.5949 58.259 25.8622 59.9537L27.424 62.4609H3.10107ZM29.7104 61.3293L27.9887 58.5651C27.9694 58.5341 27.9488 58.5041 27.927 58.4749C26.8989 57.1035 25.9399 55.6693 25.0665 54.2014L29.594 49.4135L34.3647 54.1841C33.4854 55.6627 32.5231 57.1029 31.4941 58.4746C31.4319 58.5575 31.5202 58.4269 29.7104 61.3293ZM31.9969 62.4609L33.5585 59.9539C34.8315 58.2527 36.0088 56.4533 37.0579 54.6051C37.0642 54.5939 37.0702 54.5825 37.0765 54.5713C37.0773 54.5699 37.078 54.5686 37.0788 54.5672C38.4823 52.0917 39.6825 49.4832 40.6543 46.7961L45.9982 48.577C51.6312 50.4554 55.8167 56.1718 56.3198 62.4609H31.9969Z" fill="#937DC2"/>
</svg>
