<svg width="124" height="124" viewBox="0 0 124 124" fill="none" xmlns="http://www.w3.org/2000/svg">
<g filter="url(#filter0_d_49_205)">
<rect x="12" y="8" width="100" height="100" rx="24" fill="#937DC2"/>
</g>
<path d="M82.5645 59.1613C83.4885 57.976 84 56.5237 84 55.0128C84 52.6155 82.6195 50.3463 80.3975 49.081C79.8255 48.7553 79.1742 48.5838 78.511 48.5844H65.322L65.652 42.0226C65.729 40.4369 65.1515 38.9312 64.0295 37.7833C63.4789 37.2175 62.8146 36.7673 62.0776 36.4606C61.3407 36.1539 60.5468 35.9971 59.745 36C56.885 36 54.355 37.8687 53.596 40.5437L48.8715 57.1484H41.76C40.7865 57.1484 40 57.9119 40 58.857V78.2915C40 79.2365 40.7865 80 41.76 80H74.8315C75.3375 80 75.8325 79.9039 76.289 79.7117C78.907 78.6278 80.5955 76.1451 80.5955 73.3901C80.5955 72.7174 80.4965 72.0553 80.2985 71.4146C81.2225 70.2294 81.734 68.7771 81.734 67.2661C81.734 66.5934 81.635 65.9313 81.437 65.2906C82.361 64.1053 82.8725 62.6531 82.8725 61.1421C82.8615 60.4694 82.7625 59.802 82.5645 59.1613ZM43.96 76.1558V60.9926H48.415V76.1558H43.96ZM78.962 57.3086L77.7575 58.323L78.522 59.6792C78.7739 60.1259 78.9045 60.6275 78.9015 61.1368C78.9015 62.0177 78.5055 62.856 77.8235 63.4326L76.619 64.447L77.3835 65.8032C77.6354 66.2499 77.766 66.7515 77.763 67.2608C77.763 68.1417 77.367 68.98 76.685 69.5566L75.4805 70.5711L76.245 71.9272C76.4969 72.3739 76.6275 72.8755 76.6245 73.3848C76.6245 74.5808 75.8985 75.6593 74.7765 76.1505H51.935V60.8218L57.4075 41.5741C57.5486 41.0808 57.8515 40.6455 58.2704 40.3343C58.6892 40.0232 59.2011 39.853 59.7285 39.8496C60.1465 39.8496 60.559 39.967 60.889 40.2073C61.4335 40.6024 61.725 41.2004 61.692 41.8357L61.164 52.4286H78.456C79.435 53.0106 80.04 53.993 80.04 55.0128C80.04 55.8937 79.644 56.7266 78.962 57.3086Z" fill="white"/>
<defs>
<filter id="filter0_d_49_205" x="0" y="0" width="124" height="124" filterUnits="userSpaceOnUse" color-interpolation-filters="sRGB">
<feFlood flood-opacity="0" result="BackgroundImageFix"/>
<feColorMatrix in="SourceAlpha" type="matrix" values="0 0 0 0 0 0 0 0 0 0 0 0 0 0 0 0 0 0 127 0" result="hardAlpha"/>
<feOffset dy="4"/>
<feGaussianBlur stdDeviation="6"/>
<feComposite in2="hardAlpha" operator="out"/>
<feColorMatrix type="matrix" values="0 0 0 0 0 0 0 0 0 0 0 0 0 0 0 0 0 0 0.25 0"/>
<feBlend mode="normal" in2="BackgroundImageFix" result="effect1_dropShadow_49_205"/>
<feBlend mode="normal" in="SourceGraphic" in2="effect1_dropShadow_49_205" result="shape"/>
</filter>
</defs>
</svg>
